<svg xmlns="http://www.w3.org/2000/svg" xmlns:xlink="http://www.w3.org/1999/xlink" xmlns:fi="http://pattern.flaticon.com/" x="0" y="0" width="2160" height="1080" viewBox="0 0 2430.8681672025723 1215.4340836012861"><rect x="0px" y="0px" width="100%" height="100%" opacity="1" fill="#94b0ec"/><defs><path d="M443.667,242.939L273,8.272c-8.043-11.029-26.475-11.029-34.517,0L67.816,242.939c-5.419,7.488-5.419,17.6,0,25.088    l170.667,234.667c4.032,5.525,10.432,8.789,17.259,8.789s13.227-3.264,17.259-8.789l170.667-234.667    C449.085,260.539,449.085,250.427,443.667,242.939z" transform="matrix(0.1173059493303299 0 0 0.1173059493303299 82 58)" id="L1_0" fill="#bad2ff"/></defs><g fi:class="KUsePattern"><pattern id="pattern_L1_0" width="350" height="350" patternUnits="userSpaceOnUse"><use xlink:href="#L1_0" x="-350" y="-350"/><use xlink:href="#L1_0" x="0" y="-350"/><use xlink:href="#L1_0" x="350" y="-350"/><use xlink:href="#L1_0" x="-350" y="0"/><use xlink:href="#L1_0" x="0" y="0"/><use xlink:href="#L1_0" x="350" y="0"/><use xlink:href="#L1_0" x="-350" y="350"/><use xlink:href="#L1_0" x="0" y="350"/><use xlink:href="#L1_0" x="350" y="350"/></pattern><rect x="0" y="0" width="100%" height="100%" fill="url(#pattern_L1_0)"/></g></svg>