<?xml version="1.0" standalone="no"?>
<!DOCTYPE svg PUBLIC "-//W3C//DTD SVG 20010904//EN"
 "http://www.w3.org/TR/2001/REC-SVG-20010904/DTD/svg10.dtd">
<svg version="1.0" xmlns="http://www.w3.org/2000/svg"
 width="300.000000pt" height="300.000000pt" viewBox="0 0 300.000000 300.000000"
 preserveAspectRatio="xMidYMid meet">
<metadata>
Created by potrace 1.11, written by Peter Selinger 2001-2013
</metadata>
<g transform="translate(0.000000,300.000000) scale(0.100000,-0.100000)"
fill="#000000" stroke="none">
<path d="M1195 2544 c-247 -27 -391 -90 -463 -203 -9 -14 -45 -61 -79 -103
-34 -43 -67 -95 -74 -115 -7 -21 -22 -54 -34 -73 -61 -97 -73 -255 -27 -334
12 -21 22 -54 22 -74 0 -46 31 -155 64 -228 14 -31 26 -61 26 -68 -1 -6 -19
-20 -42 -31 -60 -29 -83 -65 -82 -128 2 -123 119 -282 253 -343 33 -15 61 -33
61 -39 0 -31 92 -173 154 -238 25 -26 46 -53 46 -60 -1 -6 -9 -2 -19 11 -20
23 -55 29 -66 12 -4 -6 -15 -8 -25 -5 -9 3 -29 1 -44 -4 -19 -8 -26 -7 -27 2
-3 82 -22 145 -45 154 -33 12 -44 -24 -43 -136 0 -70 -5 -123 -15 -156 -9 -27
-16 -75 -16 -106 0 -48 5 -65 35 -108 l34 -52 -52 -49 c-29 -27 -55 -50 -59
-50 -5 0 -8 -4 -8 -10 0 -14 33 -12 49 3 11 10 14 10 18 0 9 -26 29 -12 59 40
l31 54 -28 34 c-41 49 -63 121 -56 182 4 28 11 55 17 61 6 6 10 60 10 127 0
65 3 124 6 133 10 27 23 18 29 -22 13 -86 27 -158 32 -165 3 -5 14 5 24 22 19
32 44 41 51 18 10 -28 8 -95 -5 -132 -20 -58 -41 -52 -45 13 -2 28 -7 52 -13
52 -12 0 -12 -86 1 -111 11 -20 46 -26 52 -10 2 5 14 3 28 -4 l25 -14 -22 -8
c-26 -10 -73 -70 -73 -92 0 -9 8 -2 16 16 19 39 39 57 90 84 21 11 31 18 22
15 -23 -7 -22 -4 2 41 11 21 20 54 20 75 0 20 9 52 20 71 11 19 27 58 35 88
28 99 46 139 62 139 20 0 15 -31 -31 -189 -20 -68 -36 -145 -37 -172 -1 -28
-6 -46 -12 -42 -5 3 -8 0 -5 -8 3 -9 27 -16 71 -20 37 -3 68 -7 70 -10 21 -26
37 -57 37 -72 0 -30 -28 -32 -51 -3 -18 23 -27 26 -57 21 -36 -6 -55 -18 -101
-67 -14 -15 -44 -33 -65 -40 -39 -13 -40 -14 -44 -65 -3 -42 0 -53 12 -53 8 0
17 10 19 22 l4 23 2 -22 c0 -14 7 -23 17 -23 11 0 14 8 12 27 -2 16 -8 27 -15
25 -7 -1 -13 7 -13 18 0 15 13 26 44 39 24 11 46 26 49 34 7 19 47 46 75 52
13 2 36 -8 58 -26 47 -37 59 -36 81 5 11 20 -6 76 -32 106 -12 13 -6 18 42 39
l56 25 20 -28 c72 -99 253 -114 348 -29 22 20 37 39 34 43 -3 4 1 13 9 19 11
9 20 6 42 -12 16 -12 52 -28 79 -35 28 -7 64 -19 80 -27 17 -8 48 -19 70 -25
73 -18 76 -22 76 -143 0 -97 2 -107 19 -107 15 0 17 6 15 37 -2 21 -5 110 -6
198 -4 243 -5 253 -40 260 -27 6 -67 39 -99 82 -34 46 -97 56 -131 22 -44 -44
-66 4 -25 55 21 25 30 28 77 28 62 -1 89 5 89 19 0 6 -5 7 -10 4 -6 -4 -8 7
-6 29 3 19 -9 99 -25 178 -41 190 -43 208 -30 208 19 0 38 -43 56 -123 9 -43
24 -95 33 -115 9 -21 17 -57 18 -82 0 -25 9 -60 18 -78 16 -30 16 -32 -1 -33
-14 0 -12 -2 5 -10 15 -5 30 -5 42 1 10 5 32 7 48 4 23 -5 32 -2 40 12 13 27
22 104 11 104 -5 0 -9 -8 -10 -17 -4 -107 -49 -110 -57 -4 -8 105 19 146 53
81 9 -17 20 -28 25 -25 5 3 14 31 20 63 17 82 32 132 41 132 12 0 19 -32 14
-65 -8 -58 -6 -200 3 -230 5 -16 7 -48 6 -71 -4 -42 -39 -134 -52 -134 -13 -1
-45 -52 -36 -59 8 -5 99 -194 124 -256 4 -11 13 -33 20 -50 7 -16 20 -59 29
-94 9 -36 22 -66 29 -69 35 -11 -19 166 -109 356 -22 48 -45 97 -51 108 -8 18
-4 31 25 73 43 62 53 118 37 197 -15 69 -16 118 -6 197 8 61 -7 131 -27 124
-25 -8 -48 -56 -54 -111 -5 -53 -8 -57 -27 -51 -12 4 -33 7 -48 7 -54 -2 -49
87 8 128 122 88 201 328 145 438 -21 42 -73 72 -123 72 -30 0 -30 1 -24 38 32
182 7 412 -59 557 -29 65 -101 131 -159 147 -43 11 -45 14 -61 69 -23 83 -71
149 -129 178 -46 23 -60 25 -230 26 -100 1 -231 -4 -291 -11z m636 -547 c49
-26 79 -71 105 -157 9 -30 21 -70 26 -88 5 -18 21 -46 34 -62 16 -18 27 -47
31 -79 l6 -49 -49 6 c-27 3 -93 5 -146 4 -142 -3 -261 -38 -365 -108 -46 -31
-163 -39 -234 -17 -70 22 -251 22 -329 0 -114 -33 -130 -38 -157 -52 -15 -8
-31 -15 -35 -15 -14 0 -19 61 -7 102 6 23 13 84 14 133 5 149 49 234 140 269
55 20 183 35 356 41 81 2 157 9 170 14 25 9 132 41 204 60 104 28 181 27 236
-2z m64 -487 c54 -12 91 -57 98 -120 7 -60 -7 -161 -30 -213 -15 -34 -20 -38
-44 -33 -27 5 -59 -17 -59 -42 0 -16 -36 -24 -114 -25 -109 0 -166 38 -220
147 -50 101 -50 152 1 201 20 19 48 38 62 42 14 3 31 9 36 13 9 7 35 13 140
34 37 7 90 6 130 -4z m293 -14 c53 -28 65 -50 64 -123 -1 -74 -14 -122 -54
-198 -26 -49 -103 -134 -113 -124 -8 9 -11 185 -4 255 5 54 12 72 30 87 23 19
23 19 2 13 -19 -6 -21 -3 -20 31 1 66 38 89 95 59z m-994 -96 c22 -5 53 -23
70 -40 29 -28 31 -35 30 -98 -3 -180 -81 -271 -248 -288 -111 -11 -164 22
-222 142 -23 48 -28 73 -29 132 0 68 2 74 29 96 29 22 105 52 156 59 50 8 176
6 214 -3z m856 -255 c-5 -190 -7 -212 -25 -233 l-20 -22 -21 102 c-21 98 -21
104 -4 123 24 28 47 91 55 150 7 59 15 99 18 94 1 -2 0 -98 -3 -214z m-604
158 c92 -232 169 -291 345 -265 40 6 75 10 76 8 3 -3 39 -134 53 -196 5 -19
10 -60 12 -90 l3 -55 -52 3 c-61 4 -95 -14 -114 -61 -15 -36 -13 -78 5 -89 19
-13 56 -9 62 7 4 8 11 15 17 15 22 0 -119 -123 -182 -158 -76 -44 -222 -61
-312 -37 -69 17 -229 94 -237 113 -2 7 8 54 23 105 31 107 31 140 -3 145 -36
5 -68 -32 -87 -101 -9 -34 -19 -66 -22 -70 -14 -23 -131 133 -171 229 -11 28
-33 95 -47 150 -15 54 -33 114 -41 133 -25 61 -14 57 16 -5 43 -92 83 -129
154 -145 100 -22 242 10 310 69 35 32 65 108 77 198 15 117 23 134 66 134 30
0 36 -5 49 -37z m-780 -20 c5 -15 19 -49 32 -75 2 -5 -7 -9 -20 -9 -22 -2 -22
-2 -1 -6 12 -2 26 -10 31 -16 13 -16 59 -147 76 -217 8 -30 17 -64 22 -74 20
-51 -113 27 -172 101 -73 90 -111 203 -84 252 13 26 67 61 93 61 10 0 20 -8
23 -17z m1411 -385 c14 -17 9 -191 -5 -196 -17 -5 -42 58 -42 109 0 77 22 118
47 87z m-119 -357 c17 -22 47 -44 65 -50 32 -11 35 -15 41 -64 3 -29 6 -74 6
-101 0 -45 -2 -48 -22 -43 -13 3 -41 9 -63 12 -61 10 -133 34 -203 67 -47 23
-66 28 -75 19 -6 -6 -20 -11 -31 -10 -19 1 -18 2 4 12 48 22 115 75 175 136
33 33 62 61 66 61 3 0 20 -18 37 -39z m-974 -43 c11 -44 6 -104 -13 -138 -22
-41 -48 -47 -43 -10 2 14 3 54 3 89 0 35 2 68 5 73 11 17 42 7 48 -14z m221
-96 l80 -41 -46 -20 c-25 -11 -72 -22 -105 -23 l-59 -3 2 46 c3 63 19 104 36
91 6 -6 48 -28 92 -50z m429 -64 c10 -40 7 -45 -34 -62 -77 -31 -206 -10 -198
31 3 15 18 19 83 26 44 4 91 11 105 16 36 13 37 13 44 -11z"/>
<path d="M1700 1680 c-113 -14 -210 -72 -226 -134 -9 -38 0 -42 40 -18 73 43
173 65 298 66 65 1 118 2 118 3 0 1 -12 14 -27 28 -57 54 -109 68 -203 55z"/>
<path d="M995 1584 c-11 -3 -37 -10 -58 -15 -44 -12 -100 -58 -122 -101 -16
-34 -13 -47 7 -31 17 13 109 40 177 53 70 13 138 13 201 -1 28 -6 54 -8 57 -5
14 14 -19 55 -59 74 -43 21 -163 36 -203 26z"/>
<path d="M1658 1452 c-50 -18 -105 -64 -118 -97 -13 -35 -2 -34 38 4 83 79
236 94 299 30 35 -35 43 -36 43 -4 0 64 -159 105 -262 67z"/>
<path d="M1658 1380 c-42 -34 -55 -83 -38 -136 11 -31 30 -47 30 -25 0 5 7 17
16 26 15 15 18 15 35 -1 12 -11 28 -15 47 -11 16 3 34 1 40 -5 7 -7 19 -5 41
8 26 15 31 24 31 57 0 32 -7 46 -39 78 -33 33 -45 39 -83 39 -33 0 -52 -7 -80
-30z m130 -16 c28 -19 28 -39 0 -58 -30 -21 -35 -20 -54 9 -16 24 -16 27 1 45
22 24 24 24 53 4z"/>
<path d="M979 1356 c-74 -26 -124 -79 -113 -120 8 -34 19 -33 34 4 39 94 249
128 332 53 24 -22 31 -12 12 16 -38 53 -178 78 -265 47z"/>
<path d="M1019 1304 c-23 -10 -41 -27 -52 -50 -20 -41 -22 -105 -5 -122 16
-16 28 -15 28 3 0 23 28 30 49 11 12 -11 27 -14 48 -10 17 3 33 1 37 -4 11
-18 65 7 72 33 9 35 -13 98 -42 120 -48 36 -82 41 -135 19z m116 -40 c14 -14
14 -19 2 -38 -17 -25 -43 -32 -62 -16 -29 24 -11 70 26 70 10 0 25 -7 34 -16z"/>
<path d="M1515 918 c-30 -18 -105 -27 -140 -17 -28 8 -29 7 -11 -6 28 -21 100
-18 146 5 22 11 40 23 40 25 0 8 -14 5 -35 -7z"/>
<path d="M1740 902 c-19 -9 -55 -23 -80 -31 -25 -7 -56 -17 -70 -22 -90 -31
-366 -45 -425 -23 -8 4 -15 2 -15 -2 1 -20 100 -182 141 -230 98 -117 228
-134 330 -43 24 22 34 35 22 29 -12 -5 -25 -15 -29 -21 -13 -21 -89 -49 -136
-49 -50 0 -125 27 -147 54 -22 26 -6 30 54 11 77 -25 151 -16 213 25 26 17 55
29 65 26 23 -6 51 56 72 156 8 37 21 84 29 103 8 19 14 35 13 35 -2 0 -18 -8
-37 -18z m-12 -39 c-5 -25 -70 -59 -163 -84 -146 -40 -354 -33 -363 12 -2 11
22 14 130 14 135 1 236 18 338 56 58 22 62 22 58 2z"/>
<path d="M1533 440 c-12 -5 -34 -7 -50 -4 -23 3 -25 2 -10 -7 18 -10 68 -4 97
12 13 7 13 8 0 8 -8 0 -25 -4 -37 -9z"/>
<path d="M2084 645 c15 -14 33 -40 41 -57 8 -18 14 -27 15 -20 0 28 -52 102
-73 102 -6 0 2 -11 17 -25z"/>
<path d="M1725 260 c-3 -5 -2 -10 4 -10 5 0 13 5 16 10 3 6 2 10 -4 10 -5 0
-13 -4 -16 -10z"/>
</g>
</svg>
