<?xml version="1.0" standalone="no"?>
<!DOCTYPE svg PUBLIC "-//W3C//DTD SVG 20010904//EN"
 "http://www.w3.org/TR/2001/REC-SVG-20010904/DTD/svg10.dtd">
<svg version="1.0" xmlns="http://www.w3.org/2000/svg"
 width="700.000000pt" height="700.000000pt" viewBox="0 0 700.000000 700.000000"
 preserveAspectRatio="xMidYMid meet">
<metadata>
Created by potrace 1.14, written by Peter Selinger 2001-2017
</metadata>
<g transform="translate(0.000000,700.000000) scale(0.100000,-0.100000)"
fill="#000000" stroke="none">
<path d="M3511 6764 c-66 -20 -104 -55 -183 -167 -40 -56 -79 -109 -85 -117
-7 -8 -276 -377 -598 -820 -321 -443 -591 -814 -600 -826 -222 -300 -862
-1188 -876 -1216 -25 -50 -32 -124 -16 -185 13 -49 38 -86 260 -390 15 -21 41
-57 57 -81 16 -23 34 -48 40 -55 9 -10 149 -202 206 -282 7 -11 53 -74 102
-140 80 -109 168 -230 278 -383 23 -31 105 -145 183 -252 79 -107 149 -204
157 -215 21 -30 143 -196 162 -223 9 -12 34 -46 55 -75 242 -332 311 -426 325
-447 9 -14 53 -74 98 -135 44 -60 118 -162 164 -225 174 -241 177 -245 245
-283 57 -31 183 -31 240 0 74 41 57 20 450 563 125 173 251 347 280 385 69 93
252 346 290 399 17 23 95 131 175 240 80 109 152 207 160 219 13 18 340 470
386 532 24 32 250 343 309 425 30 41 82 113 116 160 166 227 188 273 176 365
-6 43 -32 107 -54 135 -7 8 -501 688 -1098 1510 -597 822 -1104 1512 -1126
1532 -69 64 -177 84 -278 52z"/>
</g>
</svg>
